<svg version="1.1" id="Layer_1" xmlns="http://www.w3.org/2000/svg" xmlns:xlink="http://www.w3.org/1999/xlink" x="0px" y="0px"
	 width="100%" viewBox="0 0 1024 1024" enable-background="new 0 0 1024 1024" xml:space="preserve">
<path fill="#FEFEFE" opacity="1.000000" stroke="none" 
	d="
M497.000000,1025.000000 
	C331.333344,1025.000000 166.166672,1025.000000 1.000000,1025.000000 
	C1.000000,683.666687 1.000000,342.333344 1.000000,1.000000 
	C342.333344,1.000000 683.666687,1.000000 1025.000000,1.000000 
	C1025.000000,342.333344 1025.000000,683.666687 1025.000000,1025.000000 
	C849.166687,1025.000000 673.333313,1025.000000 497.000000,1025.000000 
M570.452759,661.380249 
	C570.952148,653.914307 571.451538,646.448303 572.104004,638.110107 
	C572.217346,622.066711 572.330627,606.023254 572.684631,589.074280 
	C572.784546,567.379822 572.884460,545.685303 573.254517,523.235962 
	C573.832214,498.158478 574.409851,473.081024 575.305847,447.303375 
	C575.776489,444.270142 576.247192,441.236938 576.717834,438.203705 
	C577.069458,438.200470 577.421082,438.197205 577.772766,438.193970 
	C578.966003,442.464142 580.159302,446.734283 581.291992,451.548920 
	C581.522339,452.034943 581.752686,452.520966 581.919373,453.757324 
	C581.995117,454.505341 582.070862,455.253357 582.147888,456.789124 
	C582.403870,457.741547 582.715881,458.682861 582.907288,459.648102 
	C585.375793,472.098724 587.827087,484.552826 590.262939,497.785797 
	C590.834778,500.552979 591.345093,503.334595 591.989075,506.084869 
	C594.942566,518.697388 597.254211,531.525208 604.841797,542.522583 
	C614.817749,556.981628 634.887817,557.596863 645.748474,543.836243 
	C651.078613,537.082947 653.589905,529.294250 655.414124,520.355652 
	C656.313110,513.072327 657.212158,505.788940 658.575134,497.792633 
	C658.980652,493.859070 659.386169,489.925507 660.017517,485.272003 
	C660.020020,484.520874 660.022522,483.769745 660.404846,482.323761 
	C662.262451,469.690704 663.812805,457.002930 666.049866,444.437439 
	C669.380432,425.729126 675.611328,407.951782 685.018738,390.714386 
	C692.795593,380.204071 700.572449,369.693787 708.935059,358.900513 
	C710.056091,357.691895 711.304565,356.576874 712.274719,355.257294 
	C715.352905,351.070648 718.303528,350.414642 723.533203,352.813293 
	C729.474792,355.538391 736.450134,356.009460 743.726807,357.653595 
	C763.523499,357.951904 781.985901,343.771515 786.719971,324.631927 
	C791.909363,303.651489 781.892578,282.905548 761.932922,273.294800 
	C744.009216,264.664368 721.157043,269.691345 708.439331,285.309174 
	C697.696594,298.871979 695.589905,313.815186 701.644958,329.875610 
	C702.500671,332.145203 702.589844,333.511353 699.976562,335.013153 
	C698.194397,336.506836 696.359375,337.942261 694.638550,339.503601 
	C682.770935,350.271118 671.892090,361.876007 663.447754,376.394745 
	C647.615051,401.368439 639.466492,428.984955 635.114563,458.810638 
	C633.070618,475.871185 631.026672,492.931732 628.597900,510.644775 
	C628.020508,513.307800 627.494629,515.984741 626.788391,518.613159 
	C626.715393,518.884949 625.568787,518.868286 624.903442,518.202881 
	C623.919128,513.732605 622.823914,509.283386 621.970947,504.788147 
	C619.266296,490.534668 616.652100,476.264038 614.023254,461.158112 
	C613.305908,457.400330 612.715149,453.613037 611.848206,449.890045 
	C608.825256,436.908264 605.776794,423.925720 597.579895,412.931091 
	C588.908569,401.299988 573.831543,398.328369 561.619202,406.126038 
	C553.333191,411.416748 549.751709,419.713043 547.551392,429.624359 
	C547.233032,431.230103 546.733398,432.823578 546.623901,434.443420 
	C545.261108,454.606720 543.954895,474.773804 542.229248,495.803894 
	C541.508057,510.200317 540.786865,524.596741 539.918213,539.847900 
	C539.789368,541.501282 539.611450,543.152527 539.539246,544.808350 
	C538.737000,563.205139 537.951111,581.602539 537.004395,600.840088 
	C536.538574,613.877991 536.072815,626.915833 535.340698,640.861694 
	C535.528442,646.837891 535.389099,652.846680 535.980164,658.782776 
	C536.875732,667.777100 543.413513,674.248169 551.653442,674.965210 
	C560.158325,675.705322 566.901245,670.925293 570.452759,661.380249 
M477.625000,332.888885 
	C473.871735,338.364380 472.340515,344.415588 472.777802,351.842010 
	C472.829712,353.238495 472.881653,354.634949 472.745270,356.578003 
	C472.812927,357.716125 472.880585,358.854279 472.805817,360.922028 
	C472.898499,371.279938 472.991180,381.637848 472.992920,392.923615 
	C473.370392,406.949097 473.747833,420.974609 474.004883,435.930420 
	C474.333466,448.363983 474.613861,460.799133 475.011566,473.230469 
	C475.201508,479.168640 475.614044,485.099701 475.903229,491.966736 
	C476.018433,504.974884 476.133636,517.983032 476.098602,531.919434 
	C475.725098,548.593262 475.351624,565.267029 474.301117,581.708557 
	C472.239319,576.461609 470.177521,571.214661 467.993927,565.414612 
	C467.680542,565.213623 467.367188,565.012573 467.042664,564.396606 
	C467.042664,564.396606 466.958099,563.990173 467.274475,563.536316 
	C466.959137,562.172241 466.613007,560.814453 466.333221,559.443115 
	C463.378662,544.961243 460.434692,530.477173 457.587646,515.466919 
	C457.381104,514.982544 457.174561,514.498230 457.025940,513.243103 
	C456.870544,512.492188 456.715149,511.741241 456.667328,510.457367 
	C456.467194,509.963318 456.267029,509.469238 456.123444,508.304565 
	C456.025177,507.868958 455.926880,507.433380 455.897980,506.300354 
	C455.613892,505.191376 455.329803,504.082428 455.105621,502.302826 
	C454.999634,501.869537 454.893646,501.436279 454.830078,500.177216 
	C452.545654,487.784851 450.261261,475.392517 448.053741,462.417664 
	C447.875183,461.869019 447.696625,461.320374 447.479187,460.157257 
	C447.336761,459.773590 447.194305,459.389954 447.107513,458.209167 
	C446.550964,455.504211 446.065308,452.782410 445.425507,450.097290 
	C442.848969,439.283905 440.073212,428.524841 433.676361,419.176941 
	C425.407532,407.093414 414.239380,403.367065 399.220886,407.859772 
	C389.591095,412.214661 384.837036,420.361450 381.523163,430.553436 
	C380.998474,432.291687 380.268158,433.996765 379.981567,435.773438 
	C377.658630,450.173035 375.418945,464.586060 373.042786,479.802887 
	C372.655884,481.734436 372.330200,483.680603 371.872284,485.595154 
	C368.482544,499.767029 365.360199,508.714050 346.400269,510.336182 
	C343.934753,510.547089 341.472656,510.798401 338.156128,510.889893 
	C322.449707,509.430450 306.743256,507.971008 290.287872,506.297729 
	C282.369019,505.680634 274.452271,504.607391 266.530701,504.570435 
	C258.043335,504.530884 249.633652,505.736359 242.822205,511.745972 
	C242.822205,511.745972 242.885681,511.760590 242.301331,511.855530 
	C241.870209,512.237549 241.439087,512.619568 240.384827,513.253113 
	C230.533798,522.733887 227.476959,534.220337 231.823761,547.014832 
	C236.141861,559.724854 245.847183,566.550903 259.052032,568.069336 
	C273.340851,569.712524 286.540253,564.415894 300.839996,561.060730 
	C313.076385,558.162964 325.312744,555.265137 338.316437,552.339172 
	C349.589539,549.416016 360.862640,546.492859 372.881104,543.403381 
	C386.280365,538.877808 394.757599,529.833252 398.465698,515.430115 
	C398.980194,512.952515 399.494690,510.474884 400.114349,507.346710 
	C400.107605,506.907990 400.100861,506.469269 400.716675,505.602509 
	C402.734955,491.711151 404.753265,477.819763 406.983948,463.222900 
	C408.017029,455.962646 409.050140,448.702393 410.083221,441.442139 
	C410.575989,441.394135 411.068726,441.346161 411.561493,441.298157 
	C413.579498,449.205780 415.597473,457.113434 417.647125,465.913818 
	C421.489136,489.257965 425.331116,512.602112 429.119232,536.749817 
	C431.768494,548.735962 434.223785,560.769287 437.120392,572.695374 
	C440.149780,585.168030 444.361237,597.213501 451.925018,607.813782 
	C466.108337,627.690979 494.605164,627.403503 506.678345,606.815979 
	C511.566071,598.186218 513.456421,588.769714 514.151978,578.501343 
	C514.119080,578.330444 514.086121,578.159546 514.190979,577.162048 
	C514.083191,575.772949 513.975403,574.383850 514.276428,572.308411 
	C514.823364,565.862305 515.370300,559.416199 516.124878,552.111450 
	C516.296814,546.745483 516.468811,541.379456 516.854126,535.158997 
	C516.903564,533.106018 516.953003,531.052979 517.201599,528.183594 
	C517.818970,511.131561 518.436340,494.079559 519.386719,476.287231 
	C519.624634,462.540222 519.862610,448.793213 520.478699,434.316620 
	C520.676086,424.553711 520.873535,414.790771 521.327393,404.487274 
	C521.236328,403.316711 521.145264,402.146118 521.192444,400.332672 
	C521.151245,399.898224 521.110046,399.463806 521.469971,398.305359 
	C521.646179,390.204376 521.822388,382.103424 522.149475,373.074554 
	C522.140747,364.925995 522.353455,356.768494 522.024414,348.632874 
	C521.873047,344.888947 521.202393,340.971710 519.821777,337.510162 
	C516.407654,328.950043 509.849396,323.903870 500.609222,322.981598 
	C491.489716,322.071350 483.432922,324.147003 477.625000,332.888885 
z"/>
<path fill="#8B50D2" opacity="1.000000" stroke="none" 
	d="
M506.126068,607.257202 
	C494.605164,627.403503 466.108337,627.690979 451.925018,607.813782 
	C444.361237,597.213501 440.149780,585.168030 437.120392,572.695374 
	C434.223785,560.769287 431.768494,548.735962 429.388824,536.078796 
	C429.950928,533.748230 430.243408,532.088745 430.669647,529.670349 
	C433.063141,533.263428 434.561951,536.452576 436.897339,538.814636 
	C441.143921,543.109619 445.859314,546.945984 450.442535,550.900146 
	C451.676270,551.964539 453.039886,553.319275 454.514679,553.581909 
	C459.208038,554.418091 462.319946,556.666321 463.819397,561.336792 
	C464.174561,562.443115 465.875946,563.117249 466.958099,563.990173 
	C466.958099,563.990173 467.042664,564.396606 467.140717,564.864868 
	C467.531097,565.544617 467.823395,565.756165 468.115723,565.967712 
	C470.177521,571.214661 472.239319,576.461609 474.693268,582.170715 
	C484.395081,589.825073 494.022858,596.450439 505.401611,599.946411 
	C505.629181,602.242981 505.877625,604.750122 506.126068,607.257202 
z"/>
<path fill="#3FC6F3" opacity="1.000000" stroke="none" 
	d="
M709.007080,284.937317 
	C721.157043,269.691345 744.009216,264.664368 761.932922,273.294800 
	C781.892578,282.905548 791.909363,303.651489 786.719971,324.631927 
	C781.985901,343.771515 763.523499,357.951904 743.361938,357.126343 
	C744.081970,354.545319 744.692566,351.927399 746.339844,350.542633 
	C751.479370,346.221954 752.828613,341.762177 750.254395,335.736450 
	C761.828674,331.112579 767.934387,322.159607 766.874390,311.538483 
	C765.788086,300.653564 757.755127,292.324921 746.365540,290.274689 
	C735.383301,288.297791 725.684387,294.508972 719.842590,306.899597 
	C718.339722,304.687256 716.766663,302.746368 716.084595,300.531128 
	C714.744995,296.180573 715.575500,290.938141 710.179993,288.454926 
	C709.412048,288.101501 709.379761,286.149475 709.007080,284.937317 
z"/>
<path fill="#A743D1" opacity="1.000000" stroke="none" 
	d="
M337.549133,552.367310 
	C325.312744,555.265137 313.076385,558.162964 300.240234,560.775146 
	C294.300598,556.681946 288.398254,553.529236 284.966949,547.527954 
	C284.410706,546.555115 283.401978,545.809021 282.514832,545.062134 
	C269.285950,533.925781 256.042358,522.807007 242.802216,511.684021 
	C249.633652,505.736359 258.043335,504.530884 266.530701,504.570435 
	C274.452271,504.607391 282.369019,505.680634 290.666504,506.813019 
	C291.872223,511.182861 294.297577,513.136108 298.098175,514.133728 
	C300.006836,514.634766 301.799500,516.180908 303.273407,517.631592 
	C310.104279,524.354736 316.818970,531.196289 323.547577,538.022705 
	C328.237976,542.781372 332.883545,547.584229 337.549133,552.367310 
z"/>
<path fill="#4F84E0" opacity="1.000000" stroke="none" 
	d="
M581.352539,451.004456 
	C580.159302,446.734283 578.966003,442.464142 577.772766,438.193970 
	C577.421082,438.197205 577.069458,438.200470 576.717834,438.203705 
	C576.247192,441.236938 575.776489,444.270142 574.848206,447.506897 
	C567.236694,441.606476 561.429138,433.582458 551.222717,431.827759 
	C550.027771,431.622314 549.079468,429.981384 548.016846,429.005920 
	C549.751709,419.713043 553.333191,411.416748 561.619202,406.126038 
	C573.831543,398.328369 588.908569,401.299988 597.579895,412.931091 
	C605.776794,423.925720 608.825256,436.908264 611.848206,449.890045 
	C612.715149,453.613037 613.305908,457.400330 613.729370,461.840424 
	C612.701172,464.591888 612.407959,468.086060 611.153442,468.474274 
	C606.626526,469.875275 601.686035,471.103821 597.083984,470.629364 
	C594.612732,470.374573 590.727478,466.616699 590.594727,464.263855 
	C590.254517,458.232269 586.998840,456.657135 582.146606,456.001373 
	C582.070862,455.253357 581.995117,454.505341 582.173462,453.234833 
	C582.069214,452.143036 581.710876,451.573761 581.352539,451.004456 
z"/>
<path fill="#4A94E5" opacity="1.000000" stroke="none" 
	d="
M635.381592,457.999084 
	C639.466492,428.984955 647.615051,401.368439 663.866638,376.491455 
	C664.779358,377.023376 665.208252,377.587128 665.776917,377.874146 
	C671.906738,380.967804 679.024170,382.709717 681.932861,390.136780 
	C682.168274,390.738037 683.679443,390.839600 684.597839,391.173370 
	C675.611328,407.951782 669.380432,425.729126 666.049866,444.437439 
	C663.812805,457.002930 662.262451,469.690704 659.930359,482.410095 
	C659.793457,471.323059 644.638977,457.866547 635.381592,457.999084 
z"/>
<path fill="#6B62D6" opacity="1.000000" stroke="none" 
	d="
M519.053711,477.027527 
	C518.436340,494.079559 517.818970,511.131561 516.832031,528.374878 
	C514.665161,522.947449 511.626556,518.598083 505.601257,516.706116 
	C503.476013,516.038879 500.751160,514.767700 499.891541,512.998779 
	C495.002563,502.938354 483.366241,498.316101 479.587311,487.447754 
	C479.401794,486.914154 478.395508,486.665894 477.754333,486.274353 
	C477.060211,488.081055 476.492981,489.557495 475.925720,491.033966 
	C475.614044,485.099701 475.201508,479.168640 475.011566,473.230469 
	C474.613861,460.799133 474.333466,448.363983 474.401398,435.505920 
	C481.555634,442.102020 488.348877,449.088837 495.059204,456.154419 
	C499.923798,461.276550 503.875763,467.806671 512.055969,467.931976 
	C516.275574,467.996643 518.230164,469.601440 518.057617,473.884796 
	C518.015991,474.917297 518.702209,475.979156 519.053711,477.027527 
z"/>
<path fill="#735ED5" opacity="1.000000" stroke="none" 
	d="
M447.051880,459.006287 
	C447.194305,459.389954 447.336761,459.773590 447.199951,460.610046 
	C447.272766,461.708618 447.624817,462.354370 447.976868,463.000153 
	C450.261261,475.392517 452.545654,487.784851 454.468262,500.543091 
	C451.083282,498.488678 448.326843,495.581787 444.982025,493.748260 
	C437.760040,489.789429 432.554047,484.094818 428.537689,477.074127 
	C427.064667,474.499176 425.624817,471.821320 423.677460,469.627441 
	C422.024689,467.765411 419.663330,466.532379 417.615479,465.021057 
	C415.597473,457.113434 413.579498,449.205780 411.561493,441.298157 
	C411.068726,441.346161 410.575989,441.394135 410.083221,441.442139 
	C409.050140,448.702393 408.017029,455.962646 406.635162,463.266846 
	C406.842499,452.144653 402.018219,444.005524 391.852570,439.634735 
	C388.174713,438.053436 385.681854,436.147369 384.195740,432.559113 
	C383.787170,431.572601 382.750366,430.846252 382.001831,430.000549 
	C384.837036,420.361450 389.591095,412.214661 399.627197,408.204468 
	C401.541199,411.051971 402.794586,413.758728 404.606171,416.017853 
	C409.330231,421.908691 414.277893,427.621277 419.179382,433.368256 
	C421.378510,435.946686 423.565674,438.552551 425.961365,440.942322 
	C430.159546,445.130066 434.399323,449.291504 438.848358,453.206329 
	C441.348358,455.406158 444.302399,457.089996 447.051880,459.006287 
z"/>
<path fill="#B63BD0" opacity="1.000000" stroke="none" 
	d="
M242.812210,511.714996 
	C256.042358,522.807007 269.285950,533.925781 282.514832,545.062134 
	C283.401978,545.809021 284.410706,546.555115 284.966949,547.527954 
	C288.398254,553.529236 294.300598,556.681946 299.832703,560.767700 
	C286.540253,564.415894 273.340851,569.712524 259.052032,568.069336 
	C245.847183,566.550903 236.141861,559.724854 231.823761,547.014832 
	C227.476959,534.220337 230.533798,522.733887 241.006226,513.099365 
	C242.046967,512.550659 242.466324,512.155640 242.885681,511.760590 
	C242.885681,511.760590 242.822205,511.745972 242.812210,511.714996 
z"/>
<path fill="#626DD9" opacity="1.000000" stroke="none" 
	d="
M519.220215,476.657379 
	C518.702209,475.979156 518.015991,474.917297 518.057617,473.884796 
	C518.230164,469.601440 516.275574,467.996643 512.055969,467.931976 
	C503.875763,467.806671 499.923798,461.276550 495.059204,456.154419 
	C488.348877,449.088837 481.555634,442.102020 474.461609,435.040771 
	C473.747833,420.974609 473.370392,406.949097 473.378662,392.499756 
	C483.429016,398.957855 491.704529,407.277740 499.256073,416.391541 
	C502.367004,420.145996 505.063110,425.022858 510.776428,424.888916 
	C516.014771,424.766052 517.471252,428.183197 518.967407,431.946472 
	C519.373718,432.968353 519.724365,434.012360 520.100586,435.046204 
	C519.862610,448.793213 519.624634,462.540222 519.220215,476.657379 
z"/>
<path fill="#5976DB" opacity="1.000000" stroke="none" 
	d="
M655.001221,521.007446 
	C653.589905,529.294250 651.078613,537.082947 645.748474,543.836243 
	C634.887817,557.596863 614.817749,556.981628 604.841797,542.522583 
	C597.254211,531.525208 594.942566,518.697388 591.989075,506.084869 
	C591.345093,503.334595 590.834778,500.552979 590.613831,497.481171 
	C592.086731,497.778442 593.151428,498.729095 594.340271,498.924591 
	C601.166992,500.047302 607.495422,503.471802 610.696899,508.829315 
	C614.286316,514.836121 619.575439,516.496399 624.920349,518.985474 
	C625.568787,518.868286 626.715393,518.884949 626.788391,518.613159 
	C627.494629,515.984741 628.020508,513.307800 629.070190,510.564392 
	C630.001526,512.787720 630.884033,514.974060 633.726440,513.818848 
	C637.321350,512.357727 639.136841,514.137756 641.254761,516.621399 
	C644.834839,520.819397 649.497314,522.434570 655.001221,521.007446 
z"/>
<path fill="#7F57D2" opacity="1.000000" stroke="none" 
	d="
M417.631287,465.467438 
	C419.663330,466.532379 422.024689,467.765411 423.677460,469.627441 
	C425.624817,471.821320 427.064667,474.499176 428.537689,477.074127 
	C432.554047,484.094818 437.760040,489.789429 444.982025,493.748260 
	C448.326843,495.581787 451.083282,498.488678 454.447083,500.955963 
	C454.893646,501.436279 454.999634,501.869537 454.806885,502.849731 
	C454.948273,504.597046 455.388428,505.797394 455.828583,506.997772 
	C455.926880,507.433380 456.025177,507.868958 455.868408,508.777893 
	C455.928833,509.830933 456.244324,510.410614 456.559784,510.990295 
	C456.715149,511.741241 456.870544,512.492188 456.785645,513.769531 
	C456.859497,514.861816 457.173645,515.427795 457.487823,515.993713 
	C460.434692,530.477173 463.378662,544.961243 466.333221,559.443115 
	C466.613007,560.814453 466.959137,562.172241 467.116272,563.763245 
	C465.875946,563.117249 464.174561,562.443115 463.819397,561.336792 
	C462.319946,556.666321 459.208038,554.418091 454.514679,553.581909 
	C453.039886,553.319275 451.676270,551.964539 450.442535,550.900146 
	C445.859314,546.945984 441.143921,543.109619 436.897339,538.814636 
	C434.561951,536.452576 433.063141,533.263428 430.669647,529.670349 
	C430.243408,532.088745 429.950928,533.748230 429.415771,535.677002 
	C425.331116,512.602112 421.489136,489.257965 417.631287,465.467438 
z"/>
<path fill="#5976DB" opacity="1.000000" stroke="none" 
	d="
M547.784119,429.315125 
	C549.079468,429.981384 550.027771,431.622314 551.222717,431.827759 
	C561.429138,433.582458 567.236694,441.606476 574.689026,447.856995 
	C574.409851,473.081024 573.832214,498.158478 572.827820,523.321411 
	C572.266907,520.429382 572.126160,517.452087 571.999817,514.474182 
	C571.773438,509.140015 567.158813,501.681885 563.393066,500.247559 
	C558.468994,498.371948 553.487671,496.573944 548.772461,494.252045 
	C546.270386,493.019989 544.515076,493.203156 542.634094,494.939941 
	C543.954895,474.773804 545.261108,454.606720 546.623901,434.443420 
	C546.733398,432.823578 547.233032,431.230103 547.784119,429.315125 
z"/>
<path fill="#7162D6" opacity="1.000000" stroke="none" 
	d="
M572.443970,589.979858 
	C572.330627,606.023254 572.217346,622.066711 571.741760,638.248047 
	C571.252563,636.413269 571.023682,634.440918 571.015625,632.467651 
	C570.971985,621.804504 569.343140,619.482605 559.482361,615.972351 
	C558.099426,615.480042 556.708252,614.823181 555.538635,613.950684 
	C549.374207,609.351929 543.279602,604.659668 537.160767,599.999817 
	C537.951111,581.602539 538.737000,563.205139 539.539246,544.808350 
	C539.611450,543.152527 539.789368,541.501282 540.358398,539.503967 
	C541.191589,539.821167 541.851379,540.449890 541.936401,541.148499 
	C542.842224,548.591431 546.404602,552.898254 553.996582,555.517700 
	C559.824463,557.528564 565.444641,561.398926 568.174500,568.324646 
	C570.376160,573.910095 571.237732,579.339844 571.081726,585.184387 
	C571.039429,586.769653 571.963440,588.380676 572.443970,589.979858 
z"/>
<path fill="#626DD9" opacity="1.000000" stroke="none" 
	d="
M572.564270,589.527100 
	C571.963440,588.380676 571.039429,586.769653 571.081726,585.184387 
	C571.237732,579.339844 570.376160,573.910095 568.174500,568.324646 
	C565.444641,561.398926 559.824463,557.528564 553.996582,555.517700 
	C546.404602,552.898254 542.842224,548.591431 541.936401,541.148499 
	C541.851379,540.449890 541.191589,539.821167 540.432129,539.076599 
	C540.786865,524.596741 541.508057,510.200317 542.431641,495.371918 
	C544.515076,493.203156 546.270386,493.019989 548.772461,494.252045 
	C553.487671,496.573944 558.468994,498.371948 563.393066,500.247559 
	C567.158813,501.681885 571.773438,509.140015 571.999817,514.474182 
	C572.126160,517.452087 572.266907,520.429382 572.692749,523.698853 
	C572.884460,545.685303 572.784546,567.379822 572.564270,589.527100 
z"/>
<path fill="#735ED5" opacity="1.000000" stroke="none" 
	d="
M475.914490,491.500366 
	C476.492981,489.557495 477.060211,488.081055 477.754333,486.274353 
	C478.395508,486.665894 479.401794,486.914154 479.587311,487.447754 
	C483.366241,498.316101 495.002563,502.938354 499.891541,512.998779 
	C500.751160,514.767700 503.476013,516.038879 505.601257,516.706116 
	C511.626556,518.598083 514.665161,522.947449 516.732544,528.783081 
	C516.953003,531.052979 516.903564,533.106018 516.385742,535.713867 
	C515.917297,541.835815 515.917236,547.402954 515.917236,552.970093 
	C515.370300,559.416199 514.823364,565.862305 513.730652,572.583618 
	C509.639893,568.609314 510.200226,560.353638 501.603455,560.987183 
	C501.267212,561.011902 500.836517,560.387939 500.523926,560.005676 
	C495.743958,554.159973 490.846191,548.403687 486.261230,542.408325 
	C484.005676,539.459045 482.512695,535.931152 480.303192,532.939453 
	C479.515839,531.873352 477.632141,531.617065 476.248871,530.991150 
	C476.133636,517.983032 476.018433,504.974884 475.914490,491.500366 
z"/>
<path fill="#8B50D2" opacity="1.000000" stroke="none" 
	d="
M398.030518,516.010620 
	C394.757599,529.833252 386.280365,538.877808 372.460602,543.091919 
	C369.031158,539.356140 366.669159,534.472595 362.885773,532.795349 
	C353.471466,528.621887 350.889160,519.266174 344.447754,512.342224 
	C343.070923,512.010315 341.039948,511.520660 339.008972,511.031006 
	C341.472656,510.798401 343.934753,510.547089 346.400269,510.336182 
	C365.360199,508.714050 368.482544,499.767029 371.872284,485.595154 
	C372.330200,483.680603 372.655884,481.734436 373.416016,479.341553 
	C374.578735,478.390045 375.368256,477.899902 375.377441,477.894196 
	C380.170715,484.377808 383.896210,491.648071 389.678925,496.431152 
	C393.351166,499.468597 397.310211,502.034790 400.094116,506.030548 
	C400.100861,506.469269 400.107605,506.907990 399.778198,507.881927 
	C398.971527,510.948303 398.501007,513.479431 398.030518,516.010620 
z"/>
<path fill="#9848D3" opacity="1.000000" stroke="none" 
	d="
M338.582550,510.960449 
	C341.039948,511.520660 343.070923,512.010315 344.447754,512.342224 
	C350.889160,519.266174 353.471466,528.621887 362.885773,532.795349 
	C366.669159,534.472595 369.031158,539.356140 372.087921,543.175049 
	C360.862640,546.492859 349.589539,549.416016 337.932800,552.353271 
	C332.883545,547.584229 328.237976,542.781372 323.547577,538.022705 
	C316.818970,531.196289 310.104279,524.354736 303.273407,517.631592 
	C301.799500,516.180908 300.006836,514.634766 298.098175,514.133728 
	C294.297577,513.136108 291.872223,511.182861 291.040955,506.919952 
	C306.743256,507.971008 322.449707,509.430450 338.582550,510.960449 
z"/>
<path fill="#3FBDF0" opacity="1.000000" stroke="none" 
	d="
M708.723145,285.123260 
	C709.379761,286.149475 709.412048,288.101501 710.179993,288.454926 
	C715.575500,290.938141 714.744995,296.180573 716.084595,300.531128 
	C716.766663,302.746368 718.339722,304.687256 719.827087,307.357880 
	C716.615173,326.712372 733.514282,340.503174 749.988647,335.953888 
	C752.828613,341.762177 751.479370,346.221954 746.339844,350.542633 
	C744.692566,351.927399 744.081970,354.545319 742.986633,357.029755 
	C736.450134,356.009460 729.474792,355.538391 723.533203,352.813293 
	C718.303528,350.414642 715.352905,351.070648 712.274719,355.257294 
	C711.304565,356.576874 710.056091,357.691895 708.312012,358.808960 
	C708.214233,355.617950 708.282043,352.350372 709.347839,349.449432 
	C713.060425,339.344147 710.827637,335.412628 700.593994,334.822144 
	C702.589844,333.511353 702.500671,332.145203 701.644958,329.875610 
	C695.589905,313.815186 697.696594,298.871979 708.723145,285.123260 
z"/>
<path fill="#5976DB" opacity="1.000000" stroke="none" 
	d="
M520.289673,434.681396 
	C519.724365,434.012360 519.373718,432.968353 518.967407,431.946472 
	C517.471252,428.183197 516.014771,424.766052 510.776428,424.888916 
	C505.063110,425.022858 502.367004,420.145996 499.256073,416.391541 
	C491.704529,407.277740 483.429016,398.957855 473.424133,392.035828 
	C472.991180,381.637848 472.898499,371.279938 473.267639,360.460144 
	C475.110321,360.433411 476.820404,360.492493 477.817749,361.365631 
	C483.629242,366.453705 489.550903,371.466248 494.892731,377.025696 
	C499.800995,382.133881 503.663452,388.125397 510.452606,391.371063 
	C514.326416,393.222931 517.551575,396.431610 521.068848,399.029358 
	C521.110046,399.463806 521.151245,399.898224 520.851990,400.864746 
	C520.697998,402.607178 520.884521,403.817535 521.070984,405.027863 
	C520.873535,414.790771 520.676086,424.553711 520.289673,434.681396 
z"/>
<path fill="#7F57D2" opacity="1.000000" stroke="none" 
	d="
M476.173737,531.455322 
	C477.632141,531.617065 479.515839,531.873352 480.303192,532.939453 
	C482.512695,535.931152 484.005676,539.459045 486.261230,542.408325 
	C490.846191,548.403687 495.743958,554.159973 500.523926,560.005676 
	C500.836517,560.387939 501.267212,561.011902 501.603455,560.987183 
	C510.200226,560.353638 509.639893,568.609314 513.526245,572.926758 
	C513.975403,574.383850 514.083191,575.772949 513.948242,577.657349 
	C513.632202,578.255981 513.474976,578.417053 513.499634,578.452881 
	C513.635681,578.650452 513.816101,578.817322 513.981323,578.994751 
	C513.456421,588.769714 511.566071,598.186218 506.402222,607.036621 
	C505.877625,604.750122 505.629181,602.242981 505.401611,599.946411 
	C494.022858,596.450439 484.395081,589.825073 475.031769,582.286865 
	C475.351624,565.267029 475.725098,548.593262 476.173737,531.455322 
z"/>
<path fill="#7F57D2" opacity="1.000000" stroke="none" 
	d="
M400.405396,505.816528 
	C397.310211,502.034790 393.351166,499.468597 389.678925,496.431152 
	C383.896210,491.648071 380.170715,484.377808 375.377441,477.894196 
	C375.368256,477.899902 374.578735,478.390045 373.471558,478.937592 
	C375.418945,464.586060 377.658630,450.173035 379.981567,435.773438 
	C380.268158,433.996765 380.998474,432.291687 381.762512,430.276978 
	C382.750366,430.846252 383.787170,431.572601 384.195740,432.559113 
	C385.681854,436.147369 388.174713,438.053436 391.852570,439.634735 
	C402.018219,444.005524 406.842499,452.144653 406.528992,463.619629 
	C404.753265,477.819763 402.734955,491.711151 400.405396,505.816528 
z"/>
<path fill="#4F84E0" opacity="1.000000" stroke="none" 
	d="
M655.207642,520.681519 
	C649.497314,522.434570 644.834839,520.819397 641.254761,516.621399 
	C639.136841,514.137756 637.321350,512.357727 633.726440,513.818848 
	C630.884033,514.974060 630.001526,512.787720 629.262634,510.238159 
	C631.026672,492.931732 633.070618,475.871185 635.248047,458.404846 
	C644.638977,457.866547 659.793457,471.323059 659.740417,482.757538 
	C660.022522,483.769745 660.020020,484.520874 659.529602,485.745483 
	C658.731506,490.314514 658.421265,494.410034 658.111084,498.505585 
	C657.212158,505.788940 656.313110,513.072327 655.207642,520.681519 
z"/>
<path fill="#517DDD" opacity="1.000000" stroke="none" 
	d="
M521.269409,398.667358 
	C517.551575,396.431610 514.326416,393.222931 510.452606,391.371063 
	C503.663452,388.125397 499.800995,382.133881 494.892731,377.025696 
	C489.550903,371.466248 483.629242,366.453705 477.817749,361.365631 
	C476.820404,360.492493 475.110321,360.433411 473.338867,359.995331 
	C472.880585,358.854279 472.812927,357.716125 473.119934,356.076508 
	C473.305908,354.055298 473.117188,352.535553 472.928467,351.015839 
	C472.340515,344.415588 473.871735,338.364380 478.343323,332.857819 
	C481.925201,334.348480 485.414276,335.272858 487.540131,337.499023 
	C495.283356,345.607574 502.469269,354.244965 510.073730,362.490753 
	C513.812927,366.545349 518.009216,370.178528 521.998657,374.002441 
	C521.822388,382.103424 521.646179,390.204376 521.269409,398.667358 
z"/>
<path fill="#7F57D2" opacity="1.000000" stroke="none" 
	d="
M537.082581,600.419922 
	C543.279602,604.659668 549.374207,609.351929 555.538635,613.950684 
	C556.708252,614.823181 558.099426,615.480042 559.482361,615.972351 
	C569.343140,619.482605 570.971985,621.804504 571.015625,632.467651 
	C571.023682,634.440918 571.252563,636.413269 571.665222,638.684204 
	C571.451538,646.448303 570.952148,653.914307 569.930847,661.465942 
	C568.079102,656.064148 565.355835,652.291626 558.954590,652.757874 
	C558.293152,652.806030 557.540100,651.989197 556.873657,651.512146 
	C550.521240,646.965027 544.178284,642.404724 537.689148,637.745178 
	C537.268127,638.191772 536.437561,639.072754 535.607056,639.953735 
	C536.072815,626.915833 536.538574,613.877991 537.082581,600.419922 
z"/>
<path fill="#41B1ED" opacity="1.000000" stroke="none" 
	d="
M700.285278,334.917664 
	C710.827637,335.412628 713.060425,339.344147 709.347839,349.449432 
	C708.282043,352.350372 708.214233,355.617950 708.019104,358.950439 
	C700.572449,369.693787 692.795593,380.204071 684.808289,390.943878 
	C683.679443,390.839600 682.168274,390.738037 681.932861,390.136780 
	C679.024170,382.709717 671.906738,380.967804 665.776917,377.874146 
	C665.208252,377.587128 664.779358,377.023376 664.128479,376.276917 
	C671.892090,361.876007 682.770935,350.271118 694.638550,339.503601 
	C696.359375,337.942261 698.194397,336.506836 700.285278,334.917664 
z"/>
<path fill="#517DDD" opacity="1.000000" stroke="none" 
	d="
M624.911865,518.594177 
	C619.575439,516.496399 614.286316,514.836121 610.696899,508.829315 
	C607.495422,503.471802 601.166992,500.047302 594.340271,498.924591 
	C593.151428,498.729095 592.086731,497.778442 590.623779,497.091278 
	C587.827087,484.552826 585.375793,472.098724 582.907288,459.648102 
	C582.715881,458.682861 582.403870,457.741547 582.147217,456.395264 
	C586.998840,456.657135 590.254517,458.232269 590.594727,464.263855 
	C590.727478,466.616699 594.612732,470.374573 597.083984,470.629364 
	C601.686035,471.103821 606.626526,469.875275 611.153442,468.474274 
	C612.407959,468.086060 612.701172,464.591888 613.719116,462.261353 
	C616.652100,476.264038 619.266296,490.534668 621.970947,504.788147 
	C622.823914,509.283386 623.919128,513.732605 624.911865,518.594177 
z"/>
<path fill="#4F84E0" opacity="1.000000" stroke="none" 
	d="
M522.074036,373.538513 
	C518.009216,370.178528 513.812927,366.545349 510.073730,362.490753 
	C502.469269,354.244965 495.283356,345.607574 487.540131,337.499023 
	C485.414276,335.272858 481.925201,334.348480 478.629456,332.694885 
	C483.432922,324.147003 491.489716,322.071350 500.609222,322.981598 
	C509.849396,323.903870 516.407654,328.950043 519.821777,337.510162 
	C521.202393,340.971710 521.873047,344.888947 522.024414,348.632874 
	C522.353455,356.768494 522.140747,364.925995 522.074036,373.538513 
z"/>
<path fill="#6B62D6" opacity="1.000000" stroke="none" 
	d="
M447.079712,458.607727 
	C444.302399,457.089996 441.348358,455.406158 438.848358,453.206329 
	C434.399323,449.291504 430.159546,445.130066 425.961365,440.942322 
	C423.565674,438.552551 421.378510,435.946686 419.179382,433.368256 
	C414.277893,427.621277 409.330231,421.908691 404.606171,416.017853 
	C402.794586,413.758728 401.541199,411.051971 399.987305,408.171448 
	C414.239380,403.367065 425.407532,407.093414 433.676361,419.176941 
	C440.073212,428.524841 442.848969,439.283905 445.425507,450.097290 
	C446.065308,452.782410 446.550964,455.504211 447.079712,458.607727 
z"/>
<path fill="#8B50D2" opacity="1.000000" stroke="none" 
	d="
M535.473877,640.407715 
	C536.437561,639.072754 537.268127,638.191772 537.689148,637.745178 
	C544.178284,642.404724 550.521240,646.965027 556.873657,651.512146 
	C557.540100,651.989197 558.293152,652.806030 558.954590,652.757874 
	C565.355835,652.291626 568.079102,656.064148 569.688110,661.767090 
	C566.901245,670.925293 560.158325,675.705322 551.653442,674.965210 
	C543.413513,674.248169 536.875732,667.777100 535.980164,658.782776 
	C535.389099,652.846680 535.528442,646.837891 535.473877,640.407715 
z"/>
<path fill="#6B62D6" opacity="1.000000" stroke="none" 
	d="
M516.020996,552.540771 
	C515.917236,547.402954 515.917297,541.835815 516.279053,536.141113 
	C516.468811,541.379456 516.296814,546.745483 516.020996,552.540771 
z"/>
<path fill="#4A94E5" opacity="1.000000" stroke="none" 
	d="
M658.343140,498.149109 
	C658.421265,494.410034 658.731506,490.314514 659.416748,486.105469 
	C659.386169,489.925507 658.980652,493.859070 658.343140,498.149109 
z"/>
<path fill="#7F57D2" opacity="1.000000" stroke="none" 
	d="
M398.248108,515.720337 
	C398.501007,513.479431 398.971527,510.948303 399.725586,508.207214 
	C399.494690,510.474884 398.980194,512.952515 398.248108,515.720337 
z"/>
<path fill="#735ED5" opacity="1.000000" stroke="none" 
	d="
M455.863281,506.649048 
	C455.388428,505.797394 454.948273,504.597046 454.776917,503.185059 
	C455.329803,504.082428 455.613892,505.191376 455.863281,506.649048 
z"/>
<path fill="#517DDD" opacity="1.000000" stroke="none" 
	d="
M521.199219,404.757568 
	C520.884521,403.817535 520.697998,402.607178 520.782837,401.186218 
	C521.145264,402.146118 521.236328,403.316711 521.199219,404.757568 
z"/>
<path fill="#5976DB" opacity="1.000000" stroke="none" 
	d="
M472.853149,351.428925 
	C473.117188,352.535553 473.305908,354.055298 473.214111,355.803223 
	C472.881653,354.634949 472.829712,353.238495 472.853149,351.428925 
z"/>
<path fill="#735ED5" opacity="1.000000" stroke="none" 
	d="
M456.613556,510.723816 
	C456.244324,510.410614 455.928833,509.830933 455.840118,509.113220 
	C456.267029,509.469238 456.467194,509.963318 456.613556,510.723816 
z"/>
<path fill="#6B62D6" opacity="1.000000" stroke="none" 
	d="
M448.015320,462.708923 
	C447.624817,462.354370 447.272766,461.708618 447.219391,460.917297 
	C447.696625,461.320374 447.875183,461.869019 448.015320,462.708923 
z"/>
<path fill="#735ED5" opacity="1.000000" stroke="none" 
	d="
M457.537720,515.730347 
	C457.173645,515.427795 456.859497,514.861816 456.756683,514.154907 
	C457.174561,514.498230 457.381104,514.982544 457.537720,515.730347 
z"/>
<path fill="#517DDD" opacity="1.000000" stroke="none" 
	d="
M581.322266,451.276672 
	C581.710876,451.573761 582.069214,452.143036 582.205322,452.859680 
	C581.752686,452.520966 581.522339,452.034943 581.322266,451.276672 
z"/>
<path fill="#A743D1" opacity="1.000000" stroke="none" 
	d="
M242.593506,511.808044 
	C242.466324,512.155640 242.046967,512.550659 241.317795,512.973633 
	C241.439087,512.619568 241.870209,512.237549 242.593506,511.808044 
z"/>
<path fill="#7F57D2" opacity="1.000000" stroke="none" 
	d="
M468.054810,565.691162 
	C467.823395,565.756165 467.531097,565.544617 467.146301,565.072327 
	C467.367188,565.012573 467.680542,565.213623 468.054810,565.691162 
z"/>
<path fill="#735ED5" opacity="1.000000" stroke="none" 
	d="
M514.066650,578.748047 
	C513.816101,578.817322 513.635681,578.650452 513.499634,578.452881 
	C513.474976,578.417053 513.632202,578.255981 513.879333,578.070679 
	C514.086121,578.159546 514.119080,578.330444 514.066650,578.748047 
z"/>
<path fill="#FEFEFE" opacity="1.000000" stroke="none" 
	d="
M750.254395,335.736450 
	C733.514282,340.503174 716.615173,326.712372 720.159668,307.505310 
	C725.684387,294.508972 735.383301,288.297791 746.365540,290.274689 
	C757.755127,292.324921 765.788086,300.653564 766.874390,311.538483 
	C767.934387,322.159607 761.828674,331.112579 750.254395,335.736450 
z"/>
</svg>